<svg width="19" height="37" viewBox="0 0 19 37" fill="none" xmlns="http://www.w3.org/2000/svg">
<path d="M19 24.4671C19 26.5731 18.3246 28.3866 16.9738 29.9076C15.623 31.4287 13.8683 32.3681 11.7098 32.726V36.3393C11.7098 36.532 11.6487 36.6903 11.5265 36.8142C11.4043 36.9381 11.2482 37 11.0581 37H8.30904C8.13255 37 7.97983 36.9346 7.85086 36.8038C7.72189 36.6731 7.6574 36.5182 7.6574 36.3393V32.726C6.7614 32.6021 5.89594 32.3888 5.06102 32.0859C4.22611 31.7831 3.53714 31.4768 2.99411 31.1671C2.45107 30.8574 1.94877 30.5271 1.48719 30.1761C1.02561 29.8251 0.709973 29.567 0.540275 29.4018C0.370578 29.2366 0.251789 29.1127 0.18391 29.0301C-0.046879 28.7411 -0.0604548 28.4589 0.143183 28.1836L2.24065 25.3962C2.33568 25.2586 2.4918 25.176 2.70901 25.1484C2.91265 25.1209 3.07556 25.1828 3.19774 25.3343L3.23847 25.3756C4.77254 26.7383 6.422 27.5986 8.18686 27.9565C8.68916 28.0666 9.19147 28.1217 9.69377 28.1217C10.7934 28.1217 11.7607 27.8257 12.5956 27.2338C13.4305 26.6419 13.848 25.8023 13.848 24.7148C13.848 24.3294 13.7462 23.9647 13.5425 23.6205C13.3389 23.2764 13.1115 22.9874 12.8603 22.7533C12.6092 22.5193 12.2121 22.2613 11.6691 21.9791C11.126 21.6969 10.678 21.4767 10.325 21.3184C9.97208 21.1601 9.42904 20.9364 8.69595 20.6473C8.16649 20.4271 7.74904 20.255 7.44358 20.1311C7.13812 20.0073 6.72067 19.8249 6.19121 19.584C5.66175 19.3431 5.23751 19.1297 4.91848 18.9439C4.59945 18.7581 4.21593 18.5138 3.76793 18.2109C3.31992 17.9081 2.95677 17.6156 2.67847 17.3334C2.40016 17.0512 2.10489 16.714 1.79264 16.3217C1.4804 15.9294 1.23943 15.5302 1.06973 15.1242C0.900035 14.7181 0.757488 14.2604 0.642094 13.7511C0.526699 13.2418 0.469002 12.705 0.469002 12.1406C0.469002 10.2411 1.13422 8.57552 2.46465 7.14397C3.79508 5.71243 5.526 4.79018 7.6574 4.37723V0.660714C7.6574 0.481771 7.72189 0.326916 7.85086 0.19615C7.97983 0.0653832 8.13255 0 8.30904 0H11.0581C11.2482 0 11.4043 0.061942 11.5265 0.185826C11.6487 0.30971 11.7098 0.468006 11.7098 0.660714V4.29464C12.4836 4.37723 13.2337 4.53553 13.96 4.76953C14.6863 5.00353 15.2768 5.2341 15.7316 5.46122C16.1864 5.68834 16.6174 5.94643 17.0247 6.23549C17.432 6.52455 17.6967 6.72414 17.8189 6.83426C17.9411 6.94438 18.0429 7.04074 18.1244 7.12333C18.3551 7.37109 18.3891 7.63263 18.2262 7.90792L16.5767 10.9224C16.4681 11.1289 16.312 11.239 16.1083 11.2528C15.9183 11.2941 15.735 11.2459 15.5585 11.1083C15.5178 11.067 15.4194 10.9844 15.2633 10.8605C15.1071 10.7366 14.8424 10.5542 14.4691 10.3133C14.0957 10.0725 13.6986 9.85221 13.2778 9.65262C12.8569 9.45303 12.3512 9.27409 11.7607 9.11579C11.1701 8.9575 10.5898 8.87835 10.0196 8.87835C8.72989 8.87835 7.67776 9.17429 6.86321 9.76618C6.04867 10.3581 5.64139 11.122 5.64139 12.058C5.64139 12.4159 5.69909 12.7463 5.81448 13.0491C5.92988 13.3519 6.13012 13.6376 6.41521 13.906C6.7003 14.1744 6.96843 14.4015 7.21958 14.5873C7.47073 14.7732 7.85086 14.9865 8.35995 15.2274C8.86904 15.4683 9.27971 15.6541 9.59195 15.7849C9.9042 15.9156 10.3794 16.1049 11.0174 16.3527C11.7369 16.628 12.2868 16.8448 12.6669 17.0031C13.047 17.1614 13.5629 17.4023 14.2145 17.7257C14.8662 18.0492 15.3786 18.3417 15.752 18.6032C16.1253 18.8648 16.5462 19.2089 17.0145 19.6356C17.4829 20.0623 17.8427 20.4993 18.0938 20.9467C18.345 21.3941 18.5588 21.9206 18.7353 22.5262C18.9118 23.1319 19 23.7788 19 24.4671Z" fill="white"/>
</svg>
